<mxfile host="65bd71144e">
    <diagram id="2dnMiI9wf7hlkSWtC2Hm" name="pki">
        <mxGraphModel dx="564" dy="358" grid="1" gridSize="10" guides="1" tooltips="1" connect="1" arrows="1" fold="1" page="1" pageScale="1" pageWidth="827" pageHeight="1169" math="0" shadow="0">
            <root>
                <mxCell id="0"/>
                <mxCell id="1" parent="0"/>
                <mxCell id="15" value="Provincias" style="swimlane;childLayout=stackLayout;horizontal=1;startSize=30;horizontalStack=0;rounded=1;fontSize=14;fontStyle=0;strokeWidth=2;resizeParent=0;resizeLast=1;shadow=0;dashed=0;align=center;fillColor=#76608a;fontColor=#ffffff;strokeColor=#432D57;" parent="1" vertex="1">
                    <mxGeometry x="20" y="50" width="110" height="90" as="geometry"/>
                </mxCell>
                <mxCell id="16" value="+id: integer&#10;+name: varchar&#10;+enabled: binary" style="align=left;strokeColor=none;fillColor=none;spacingLeft=4;fontSize=12;verticalAlign=top;resizable=0;rotatable=0;part=1;" parent="15" vertex="1">
                    <mxGeometry y="30" width="110" height="60" as="geometry"/>
                </mxCell>
                <mxCell id="17" value="Municipio" style="swimlane;childLayout=stackLayout;horizontal=1;startSize=30;horizontalStack=0;rounded=1;fontSize=14;fontStyle=0;strokeWidth=2;resizeParent=0;resizeLast=1;shadow=0;dashed=0;align=center;fillColor=#76608a;fontColor=#ffffff;strokeColor=#432D57;" parent="1" vertex="1">
                    <mxGeometry x="20" y="180" width="120" height="100" as="geometry"/>
                </mxCell>
                <mxCell id="18" value="+id: integer&#10;+name: varchar&#10;+enabled: binary&#10;+provinciaId: integer" style="align=left;strokeColor=none;fillColor=none;spacingLeft=4;fontSize=12;verticalAlign=top;resizable=0;rotatable=0;part=1;" parent="17" vertex="1">
                    <mxGeometry y="30" width="120" height="70" as="geometry"/>
                </mxCell>
                <mxCell id="32" value="Organismos" style="swimlane;childLayout=stackLayout;horizontal=1;startSize=30;horizontalStack=0;rounded=1;fontSize=14;fontStyle=0;strokeWidth=2;resizeParent=0;resizeLast=1;shadow=0;dashed=0;align=center;fillColor=#76608a;strokeColor=#432D57;fontColor=#ffffff;" parent="1" vertex="1">
                    <mxGeometry x="200" y="50" width="100" height="90" as="geometry"/>
                </mxCell>
                <mxCell id="33" value="+id: integer&#10;+name: varchar&#10;+enabled: binary" style="align=left;strokeColor=none;fillColor=none;spacingLeft=4;fontSize=12;verticalAlign=top;resizable=0;rotatable=0;part=1;" parent="32" vertex="1">
                    <mxGeometry y="30" width="100" height="60" as="geometry"/>
                </mxCell>
                <mxCell id="63" style="edgeStyle=none;shape=flexArrow;html=1;entryX=0;entryY=0.083;entryDx=0;entryDy=0;fillColor=#cce5ff;strokeColor=#36393d;entryPerimeter=0;exitX=1;exitY=0.874;exitDx=0;exitDy=0;exitPerimeter=0;" parent="1" source="35" target="61" edge="1">
                    <mxGeometry relative="1" as="geometry">
                        <mxPoint x="360" y="290" as="sourcePoint"/>
                    </mxGeometry>
                </mxCell>
                <mxCell id="34" value="EmpresasInstituciones" style="swimlane;childLayout=stackLayout;horizontal=1;startSize=30;horizontalStack=0;rounded=1;fontSize=14;fontStyle=0;strokeWidth=2;resizeParent=0;resizeLast=1;shadow=0;dashed=0;align=center;fillColor=#76608a;strokeColor=#432D57;fontColor=#ffffff;" parent="1" vertex="1">
                    <mxGeometry x="190" y="190" width="160" height="110" as="geometry"/>
                </mxCell>
                <mxCell id="35" value="+id: integer&#10;+name: varchar&#10;+enabled: binary&#10;+organismoId: integer&#10;+municipioId: integer" style="align=left;strokeColor=none;fillColor=none;spacingLeft=4;fontSize=12;verticalAlign=top;resizable=0;rotatable=0;part=1;" parent="34" vertex="1">
                    <mxGeometry y="30" width="160" height="80" as="geometry"/>
                </mxCell>
                <mxCell id="36" style="edgeStyle=none;shape=flexArrow;html=1;fillColor=#cce5ff;strokeColor=#36393d;entryX=0.375;entryY=0;entryDx=0;entryDy=0;entryPerimeter=0;" parent="1" source="33" target="34" edge="1">
                    <mxGeometry relative="1" as="geometry">
                        <mxPoint x="250" y="180" as="targetPoint"/>
                    </mxGeometry>
                </mxCell>
                <mxCell id="37" style="edgeStyle=none;shape=flexArrow;html=1;fillColor=#cce5ff;strokeColor=#36393d;entryX=0;entryY=0.5;entryDx=0;entryDy=0;" parent="1" target="35" edge="1">
                    <mxGeometry relative="1" as="geometry">
                        <mxPoint x="140" y="260" as="sourcePoint"/>
                        <mxPoint x="200" y="245" as="targetPoint"/>
                    </mxGeometry>
                </mxCell>
                <mxCell id="40" value="Representantes" style="swimlane;childLayout=stackLayout;horizontal=1;startSize=30;horizontalStack=0;rounded=1;fontSize=14;fontStyle=0;strokeWidth=2;resizeParent=0;resizeLast=1;shadow=0;dashed=0;align=center;fillColor=#76608a;strokeColor=#432D57;fontColor=#ffffff;" parent="1" vertex="1">
                    <mxGeometry x="480" y="50" width="170" height="200" as="geometry"/>
                </mxCell>
                <mxCell id="41" value="+id: integer&#10;+ci: integer&#10;+tome: integer&#10;+folio: integer&#10;+name: varchar&#10;+phone: varchar&#10;+namer: varchar&#10;+nameCharger: varchar&#10;+enabled: binary&#10;+eiId: integer&#10;+userId: integer" style="align=left;strokeColor=none;fillColor=none;spacingLeft=4;fontSize=12;verticalAlign=top;resizable=0;rotatable=0;part=1;" parent="40" vertex="1">
                    <mxGeometry y="30" width="170" height="170" as="geometry"/>
                </mxCell>
                <mxCell id="42" style="edgeStyle=none;shape=flexArrow;html=1;fillColor=#cce5ff;strokeColor=#36393d;exitX=1;exitY=0.182;exitDx=0;exitDy=0;exitPerimeter=0;entryX=0;entryY=0.75;entryDx=0;entryDy=0;" parent="1" source="34" target="41" edge="1">
                    <mxGeometry relative="1" as="geometry">
                        <mxPoint x="480" y="220" as="targetPoint"/>
                    </mxGeometry>
                </mxCell>
                <mxCell id="47" style="edgeStyle=none;shape=flexArrow;html=1;entryX=0.659;entryY=1.018;entryDx=0;entryDy=0;fillColor=#cce5ff;strokeColor=#36393d;width=11;endSize=6.02;exitX=0.192;exitY=0;exitDx=0;exitDy=0;entryPerimeter=0;exitPerimeter=0;" parent="1" source="45" target="41" edge="1">
                    <mxGeometry relative="1" as="geometry">
                        <mxPoint x="563" y="480" as="sourcePoint"/>
                    </mxGeometry>
                </mxCell>
                <mxCell id="45" value="Users" style="swimlane;childLayout=stackLayout;horizontal=1;startSize=30;horizontalStack=0;rounded=1;fontSize=14;fontStyle=0;strokeWidth=2;resizeParent=0;resizeLast=1;shadow=0;dashed=0;align=center;fillColor=#76608a;fontColor=#ffffff;strokeColor=#432D57;" parent="1" vertex="1">
                    <mxGeometry x="570" y="580" width="120" height="110" as="geometry"/>
                </mxCell>
                <mxCell id="46" value="+id: integer&#10;+email: varchar&#10;password: varchar&#10;+enabled: binary&#10;+rolId: integer" style="align=left;strokeColor=none;fillColor=none;spacingLeft=4;fontSize=12;verticalAlign=top;resizable=0;rotatable=0;part=1;" parent="45" vertex="1">
                    <mxGeometry y="30" width="120" height="80" as="geometry"/>
                </mxCell>
                <mxCell id="59" style="edgeStyle=none;shape=flexArrow;html=1;fillColor=#cce5ff;strokeColor=#36393d;exitX=0.894;exitY=0.011;exitDx=0;exitDy=0;exitPerimeter=0;entryX=0.193;entryY=0.989;entryDx=0;entryDy=0;entryPerimeter=0;" parent="1" source="52" target="57" edge="1">
                    <mxGeometry relative="1" as="geometry">
                        <mxPoint x="706" y="260" as="targetPoint"/>
                    </mxGeometry>
                </mxCell>
                <mxCell id="52" value="Â Rols" style="swimlane;childLayout=stackLayout;horizontal=1;startSize=30;horizontalStack=0;rounded=1;fontSize=14;fontStyle=0;strokeWidth=2;resizeParent=0;resizeLast=1;shadow=0;dashed=0;align=center;fillColor=#76608a;fontColor=#ffffff;strokeColor=#432D57;" parent="1" vertex="1">
                    <mxGeometry x="610" y="335" width="110" height="90" as="geometry"/>
                </mxCell>
                <mxCell id="53" value="+id: integer&#10;+name: varchar&#10;+enabled: binary" style="align=left;strokeColor=none;fillColor=none;spacingLeft=4;fontSize=12;verticalAlign=top;resizable=0;rotatable=0;part=1;" parent="52" vertex="1">
                    <mxGeometry y="30" width="110" height="60" as="geometry"/>
                </mxCell>
                <mxCell id="60" style="edgeStyle=none;shape=flexArrow;html=1;entryX=0.5;entryY=0;entryDx=0;entryDy=0;fillColor=#cce5ff;strokeColor=#36393d;exitX=0.417;exitY=1;exitDx=0;exitDy=0;exitPerimeter=0;" parent="1" source="55" target="56" edge="1">
                    <mxGeometry relative="1" as="geometry"/>
                </mxCell>
                <mxCell id="54" value="Funcionalidades" style="swimlane;childLayout=stackLayout;horizontal=1;startSize=30;horizontalStack=0;rounded=1;fontSize=14;fontStyle=0;strokeWidth=2;resizeParent=0;resizeLast=1;shadow=0;dashed=0;align=center;fillColor=#76608a;fontColor=#ffffff;strokeColor=#432D57;" parent="1" vertex="1">
                    <mxGeometry x="700" y="50" width="120" height="90" as="geometry"/>
                </mxCell>
                <mxCell id="55" value="+id: integer&#10;+name: varchar&#10;+enabled: binary" style="align=left;strokeColor=none;fillColor=none;spacingLeft=4;fontSize=12;verticalAlign=top;resizable=0;rotatable=0;part=1;" parent="54" vertex="1">
                    <mxGeometry y="30" width="120" height="60" as="geometry"/>
                </mxCell>
                <mxCell id="56" value="RolsFuncionalidades" style="swimlane;childLayout=stackLayout;horizontal=1;startSize=30;horizontalStack=0;rounded=1;fontSize=14;fontStyle=0;strokeWidth=2;resizeParent=0;resizeLast=1;shadow=0;dashed=0;align=center;fillColor=#76608a;fontColor=#ffffff;strokeColor=#432D57;" parent="1" vertex="1">
                    <mxGeometry x="680" y="180" width="140" height="90" as="geometry"/>
                </mxCell>
                <mxCell id="57" value="+id: integer&#10;+name: varchar&#10;+enabled: binary" style="align=left;strokeColor=none;fillColor=none;spacingLeft=4;fontSize=12;verticalAlign=top;resizable=0;rotatable=0;part=1;" parent="56" vertex="1">
                    <mxGeometry y="30" width="140" height="60" as="geometry"/>
                </mxCell>
                <mxCell id="58" style="edgeStyle=none;shape=flexArrow;html=1;fillColor=#cce5ff;strokeColor=#36393d;entryX=0.558;entryY=-0.009;entryDx=0;entryDy=0;entryPerimeter=0;" parent="1" target="45" edge="1">
                    <mxGeometry relative="1" as="geometry">
                        <mxPoint x="637" y="424" as="sourcePoint"/>
                        <mxPoint x="628" y="460" as="targetPoint"/>
                    </mxGeometry>
                </mxCell>
                <mxCell id="61" value="Solicitudes" style="swimlane;childLayout=stackLayout;horizontal=1;startSize=30;horizontalStack=0;rounded=1;fontSize=14;fontStyle=0;strokeWidth=2;resizeParent=0;resizeLast=1;shadow=0;dashed=0;align=center;fillColor=#76608A;strokeColor=#76608A;fontColor=#ffffff;gradientColor=none;" parent="1" vertex="1">
                    <mxGeometry x="400" y="270" width="120" height="230" as="geometry"/>
                </mxCell>
                <mxCell id="62" value="+id: integer&#10;+ci: integer&#10;+tome: integer&#10;+folio: integer&#10;+name: varchar&#10;+email: varchar&#10;+phone: varchar&#10;+propositoId: integer&#10;+tarifaId: integer&#10;+estadoId: integer&#10;+charge: varchar N&#10;+eiId: integer N&#10;+erId: integer N" style="align=left;strokeColor=none;fillColor=none;spacingLeft=4;fontSize=12;verticalAlign=top;resizable=0;rotatable=0;part=1;" parent="61" vertex="1">
                    <mxGeometry y="30" width="120" height="200" as="geometry"/>
                </mxCell>
                <mxCell id="64" value="Propositos" style="swimlane;childLayout=stackLayout;horizontal=1;startSize=30;horizontalStack=0;rounded=1;fontSize=14;fontStyle=0;strokeWidth=2;resizeParent=0;resizeLast=1;shadow=0;dashed=0;align=center;fillColor=#76608a;fontColor=#ffffff;strokeColor=#432D57;" parent="1" vertex="1">
                    <mxGeometry x="310" y="565" width="110" height="70" as="geometry"/>
                </mxCell>
                <mxCell id="65" value="+id: integer&#10;+name: varchar" style="align=left;strokeColor=none;fillColor=none;spacingLeft=4;fontSize=12;verticalAlign=top;resizable=0;rotatable=0;part=1;" parent="64" vertex="1">
                    <mxGeometry y="30" width="110" height="40" as="geometry"/>
                </mxCell>
                <mxCell id="70" style="edgeStyle=none;shape=flexArrow;html=1;entryX=-0.017;entryY=0.314;entryDx=0;entryDy=0;entryPerimeter=0;fillColor=#cce5ff;strokeColor=#36393d;" parent="1" source="67" target="62" edge="1">
                    <mxGeometry relative="1" as="geometry"/>
                </mxCell>
                <mxCell id="67" value="Estados" style="swimlane;childLayout=stackLayout;horizontal=1;startSize=30;horizontalStack=0;rounded=1;fontSize=14;fontStyle=0;strokeWidth=2;resizeParent=0;resizeLast=1;shadow=0;dashed=0;align=center;fillColor=#76608a;fontColor=#ffffff;strokeColor=#432D57;" parent="1" vertex="1">
                    <mxGeometry x="240" y="322.5" width="110" height="90" as="geometry"/>
                </mxCell>
                <mxCell id="68" value="+id: integer&#10;+name: varchar&#10;+enabled: binary" style="align=left;strokeColor=none;fillColor=none;spacingLeft=4;fontSize=12;verticalAlign=top;resizable=0;rotatable=0;part=1;" parent="67" vertex="1">
                    <mxGeometry y="30" width="110" height="60" as="geometry"/>
                </mxCell>
                <mxCell id="69" style="edgeStyle=none;shape=flexArrow;html=1;entryX=0.075;entryY=0.995;entryDx=0;entryDy=0;entryPerimeter=0;fillColor=#cce5ff;strokeColor=#36393d;" parent="1" target="62" edge="1">
                    <mxGeometry relative="1" as="geometry">
                        <mxPoint x="409" y="567" as="sourcePoint"/>
                    </mxGeometry>
                </mxCell>
                <mxCell id="71" value="EntidadesRegistros" style="swimlane;childLayout=stackLayout;horizontal=1;startSize=30;horizontalStack=0;rounded=1;fontSize=14;fontStyle=0;strokeWidth=2;resizeParent=0;resizeLast=1;shadow=0;dashed=0;align=center;fillColor=#76608a;fontColor=#ffffff;strokeColor=#432D57;" parent="1" vertex="1">
                    <mxGeometry x="20" y="322.5" width="130" height="115" as="geometry"/>
                </mxCell>
                <mxCell id="72" value="+id: integer&#10;+name: varchar&#10;+address: varchar&#10;+enabled: binary&#10;+municipioId: integer" style="align=left;strokeColor=none;fillColor=none;spacingLeft=4;fontSize=12;verticalAlign=top;resizable=0;rotatable=0;part=1;" parent="71" vertex="1">
                    <mxGeometry y="30" width="130" height="85" as="geometry"/>
                </mxCell>
                <mxCell id="75" style="edgeStyle=none;shape=flexArrow;html=1;entryX=0.454;entryY=-0.017;entryDx=0;entryDy=0;entryPerimeter=0;fillColor=#cce5ff;strokeColor=#36393d;" parent="1" source="18" target="71" edge="1">
                    <mxGeometry relative="1" as="geometry"/>
                </mxCell>
                <mxCell id="76" value="FuncionariosRegistros" style="swimlane;childLayout=stackLayout;horizontal=1;startSize=30;horizontalStack=0;rounded=1;fontSize=14;fontStyle=0;strokeWidth=2;resizeParent=0;resizeLast=1;shadow=0;dashed=0;align=center;fillColor=#76608a;strokeColor=#432D57;fontColor=#ffffff;" parent="1" vertex="1">
                    <mxGeometry x="30" y="560" width="160" height="130" as="geometry"/>
                </mxCell>
                <mxCell id="77" value="+id: integer&#10;+name: varchar&#10;+phone: varchar&#10;+enabled: binary&#10;+erId: integer&#10;+userId: integer" style="align=left;strokeColor=none;fillColor=none;spacingLeft=4;fontSize=12;verticalAlign=top;resizable=0;rotatable=0;part=1;" parent="76" vertex="1">
                    <mxGeometry y="30" width="160" height="100" as="geometry"/>
                </mxCell>
                <mxCell id="79" style="edgeStyle=none;shape=flexArrow;html=1;fillColor=#cce5ff;strokeColor=#36393d;" parent="1" edge="1">
                    <mxGeometry relative="1" as="geometry">
                        <mxPoint x="63" y="560" as="targetPoint"/>
                        <mxPoint x="63" y="440" as="sourcePoint"/>
                    </mxGeometry>
                </mxCell>
                <mxCell id="80" style="edgeStyle=none;shape=flexArrow;html=1;fillColor=#cce5ff;strokeColor=#36393d;exitX=0;exitY=0.75;exitDx=0;exitDy=0;" parent="1" source="46" edge="1">
                    <mxGeometry relative="1" as="geometry">
                        <mxPoint x="190" y="670" as="targetPoint"/>
                        <mxPoint x="560" y="733" as="sourcePoint"/>
                    </mxGeometry>
                </mxCell>
                <mxCell id="83" value="Tokens" style="swimlane;childLayout=stackLayout;horizontal=1;startSize=30;horizontalStack=0;rounded=1;fontSize=14;fontStyle=0;strokeWidth=2;resizeParent=0;resizeLast=1;shadow=0;dashed=0;align=center;fillColor=#76608a;fontColor=#ffffff;strokeColor=#432D57;" parent="1" vertex="1">
                    <mxGeometry x="660" y="440" width="100" height="90" as="geometry"/>
                </mxCell>
                <mxCell id="84" value="+id: integer&#10;+token: varchar&#10;+userId: integer" style="align=left;strokeColor=none;fillColor=none;spacingLeft=4;fontSize=12;verticalAlign=top;resizable=0;rotatable=0;part=1;" parent="83" vertex="1">
                    <mxGeometry y="30" width="100" height="60" as="geometry"/>
                </mxCell>
                <mxCell id="85" style="edgeStyle=none;shape=flexArrow;html=1;fillColor=#cce5ff;strokeColor=#36393d;entryX=0.1;entryY=0.983;entryDx=0;entryDy=0;entryPerimeter=0;" parent="1" target="84" edge="1">
                    <mxGeometry relative="1" as="geometry">
                        <mxPoint x="700" y="770" as="targetPoint"/>
                        <mxPoint x="670" y="580" as="sourcePoint"/>
                    </mxGeometry>
                </mxCell>
                <mxCell id="96" style="edgeStyle=none;shape=flexArrow;rounded=1;html=1;labelBackgroundColor=default;fontFamily=Helvetica;fontSize=11;fontColor=default;endArrow=classic;strokeColor=#10739e;fillColor=#b1ddf0;exitX=1;exitY=0.214;exitDx=0;exitDy=0;exitPerimeter=0;" parent="1" source="88" edge="1">
                    <mxGeometry relative="1" as="geometry">
                        <mxPoint x="240" y="465" as="targetPoint"/>
                    </mxGeometry>
                </mxCell>
                <mxCell id="88" value="Finalidades" style="swimlane;childLayout=stackLayout;horizontal=1;startSize=30;horizontalStack=0;rounded=1;fontSize=14;fontStyle=0;strokeWidth=2;resizeParent=0;resizeLast=1;shadow=0;dashed=0;align=center;fillColor=#76608a;fontColor=#ffffff;strokeColor=#432D57;" parent="1" vertex="1">
                    <mxGeometry x="80" y="450" width="110" height="70" as="geometry"/>
                </mxCell>
                <mxCell id="89" value="+id: integer&#10;+name: varchar" style="align=left;strokeColor=none;fillColor=none;spacingLeft=4;fontSize=12;verticalAlign=top;resizable=0;rotatable=0;part=1;" parent="88" vertex="1">
                    <mxGeometry y="30" width="110" height="40" as="geometry"/>
                </mxCell>
                <mxCell id="93" style="edgeStyle=none;html=1;shape=flexArrow;strokeColor=#3333FF;exitX=1.008;exitY=0.16;exitDx=0;exitDy=0;fillColor=#b1ddf0;exitPerimeter=0;" parent="1" source="91" edge="1">
                    <mxGeometry relative="1" as="geometry">
                        <mxPoint x="400" y="471" as="targetPoint"/>
                    </mxGeometry>
                </mxCell>
                <mxCell id="90" value="Tarifas" style="swimlane;childLayout=stackLayout;horizontal=1;startSize=30;horizontalStack=0;rounded=1;fontSize=14;fontStyle=0;strokeWidth=2;resizeParent=0;resizeLast=1;shadow=0;dashed=0;align=center;fillColor=#76608a;fontColor=#ffffff;strokeColor=#432D57;" parent="1" vertex="1">
                    <mxGeometry x="240" y="425" width="120" height="130" as="geometry"/>
                </mxCell>
                <mxCell id="91" value="+id: integer&#10;+time: integer&#10;+price: float&#10;+range: varchar&#10;+enabled: binary&#10;+finalidadId: integer" style="align=left;strokeColor=none;fillColor=none;spacingLeft=4;fontSize=12;verticalAlign=top;resizable=0;rotatable=0;part=1;" parent="90" vertex="1">
                    <mxGeometry y="30" width="120" height="100" as="geometry"/>
                </mxCell>
                <mxCell id="98" value="DataKey" style="swimlane;childLayout=stackLayout;horizontal=1;startSize=30;horizontalStack=0;rounded=1;fontSize=14;fontStyle=0;strokeWidth=2;resizeParent=0;resizeLast=1;shadow=0;dashed=0;align=center;fillColor=#76608a;fontColor=#ffffff;strokeColor=#432D57;" parent="1" vertex="1">
                    <mxGeometry x="430" y="565" width="120" height="80" as="geometry"/>
                </mxCell>
                <mxCell id="99" value="+id: integer&#10;+password: varchar&#10;+solicitudId: integer" style="align=left;strokeColor=none;fillColor=none;spacingLeft=4;fontSize=12;verticalAlign=top;resizable=0;rotatable=0;part=1;" parent="98" vertex="1">
                    <mxGeometry y="30" width="120" height="50" as="geometry"/>
                </mxCell>
                <mxCell id="100" style="edgeStyle=none;html=1;shape=flexArrow;fillColor=#b1ddf0;strokeColor=#10739e;entryX=0.25;entryY=0;entryDx=0;entryDy=0;exitX=0.5;exitY=1;exitDx=0;exitDy=0;" parent="1" source="62" target="98" edge="1">
                    <mxGeometry relative="1" as="geometry">
                        <mxPoint x="483" y="510" as="sourcePoint"/>
                    </mxGeometry>
                </mxCell>
                <mxCell id="106" style="edgeStyle=none;html=1;exitX=0.5;exitY=1;exitDx=0;exitDy=0;strokeColor=#10739e;fillColor=#b1ddf0;shape=flexArrow;" parent="1" source="16" edge="1">
                    <mxGeometry relative="1" as="geometry">
                        <mxPoint x="75" y="180" as="targetPoint"/>
                    </mxGeometry>
                </mxCell>
            </root>
        </mxGraphModel>
    </diagram>
</mxfile>